<?xml version="1.0" encoding="utf-8"?>
<!-- Generator: Adobe Illustrator 24.2.1, SVG Export Plug-In . SVG Version: 6.00 Build 0)  -->
<svg version="1.1" id="Layer_1" xmlns="http://www.w3.org/2000/svg" xmlns:xlink="http://www.w3.org/1999/xlink" x="0px" y="0px"
	 viewBox="0 0 700 700" style="enable-background:new 0 0 700 700;" xml:space="preserve">
<style type="text/css">
	.st0{opacity:0.4;fill:none;stroke:#FFFFFF;stroke-width:8;stroke-miterlimit:10;}
</style>
<line class="st0" x1="-73.9" y1="719.3" x2="853.2" y2="290.9"/>
<line class="st0" x1="-49.3" y1="772.5" x2="877.8" y2="344.1"/>
<line class="st0" x1="-24.7" y1="825.7" x2="902.4" y2="397.3"/>
<line class="st0" x1="-98.5" y1="666.1" x2="828.6" y2="237.7"/>
<line class="st0" x1="-0.1" y1="878.9" x2="926.9" y2="450.5"/>
<line class="st0" x1="24.4" y1="932.1" x2="951.5" y2="503.7"/>
<line class="st0" x1="49" y1="985.3" x2="976.1" y2="556.9"/>
<line class="st0" x1="-123" y1="612.9" x2="804" y2="184.5"/>
<line class="st0" x1="-319.7" y1="187.4" x2="607.4" y2="-241"/>
<line class="st0" x1="-295.1" y1="240.6" x2="632" y2="-187.8"/>
<line class="st0" x1="-270.5" y1="293.8" x2="656.6" y2="-134.6"/>
<line class="st0" x1="-245.9" y1="347" x2="681.1" y2="-81.4"/>
<line class="st0" x1="-221.4" y1="400.2" x2="705.7" y2="-28.2"/>
<line class="st0" x1="-196.8" y1="453.4" x2="730.3" y2="24.9"/>
<line class="st0" x1="-172.2" y1="506.5" x2="754.9" y2="78.1"/>
<line class="st0" x1="-147.6" y1="559.7" x2="779.5" y2="131.3"/>
</svg>
