<?xml version="1.0" encoding="utf-8"?>
<!-- Generator: Adobe Illustrator 24.2.1, SVG Export Plug-In . SVG Version: 6.00 Build 0)  -->
<svg version="1.1" id="Layer_1" xmlns="http://www.w3.org/2000/svg" xmlns:xlink="http://www.w3.org/1999/xlink" x="0px" y="0px"
	 viewBox="0 0 700 700" style="enable-background:new 0 0 700 700;" xml:space="preserve">
<style type="text/css">
	.st0{fill:#FFFFFF;stroke:#000000;stroke-miterlimit:10;}
	.st1{fill:#00AEEF;stroke:#000000;stroke-miterlimit:10;}
	.st2{fill:#414042;stroke:#000000;stroke-miterlimit:10;}
</style>
<circle class="st0" cx="350" cy="350" r="337"/>
<path class="st1" d="M624.8,325.8c0-96.2-76.9-174.3-171.8-174.3s-171.8,78-171.8,174.3S358.2,500,453,500c11.4,0,22.6-1.1,33.4-3.3
	l38.8,81.9l66-31.3l-38-80C596.6,435.6,624.8,384.1,624.8,325.8z M453,431.3c-57.5,0-104.1-47.3-104.1-105.5s46.6-105.5,104-105.5
	s104,47.3,104,105.5c0,30.9-13.1,58.6-33.9,78l-0.1-0.1c-12.8,11.8-26.1,18.6-37.6,22.5c-9.5,3.2-19.6,5-30.1,5.2c0,0,0,0,0,0l0,0
	C454.6,431.3,453.8,431.3,453,431.3z"/>
<path class="st2" d="M523.3,403.6L389.5,121.4l-66,31.3l-36.8,17.5l-0.1,140L178,221.6l-36.8,17.5l-66,31.3l130.3,273.4l66-31.3
	L169.6,299.1l124.5,90.8l24.7-11.7l24.7-11.7l8.5-153.8l103.7,218.6C455.6,431.3,491.5,432.4,523.3,403.6z"/>
</svg>
