<?xml version="1.0" encoding="utf-8"?>
<!-- Generator: Adobe Illustrator 24.2.1, SVG Export Plug-In . SVG Version: 6.00 Build 0)  -->
<svg version="1.1" id="Layer_1" xmlns="http://www.w3.org/2000/svg" xmlns:xlink="http://www.w3.org/1999/xlink" x="0px" y="0px"
	 viewBox="0 0 700 700" xml:space="preserve">
<style type="text/css">
	.st0{fill:#00AEEF;stroke:#000000;stroke-miterlimit:10;}
	.st1{fill:#414042;stroke:#000000;stroke-miterlimit:10;}
</style>
<path class="st0" d="M624.84,325.79c0-96.24-76.92-174.26-171.8-174.26s-171.8,78.02-171.8,174.26s76.92,174.26,171.8,174.26
	c11.42,0,22.57-1.14,33.37-3.3l38.84,81.9l66.03-31.31l-37.96-80.05C596.63,435.65,624.84,384.06,624.84,325.79z M453.04,431.33
	c-57.47,0-104.05-47.25-104.05-105.54s46.59-105.54,104.05-105.54s104.05,47.25,104.05,105.54c0,30.88-13.07,58.65-33.91,77.95
	l-0.06-0.13c-12.78,11.79-26.15,18.57-37.61,22.47c-9.51,3.16-19.61,4.98-30.11,5.22c-0.01,0-0.03,0-0.03,0l0,0
	C454.6,431.31,453.82,431.33,453.04,431.33z"/>
<path class="st1" d="M523.32,403.61L389.48,121.36l-66.03,31.31l-36.81,17.46l-0.13,140.02L178,221.64l-36.81,17.46l-66.03,31.31
	L205.49,543.8l66.03-31.31L169.64,299.09l124.46,90.8l24.67-11.7l24.67-11.7l8.45-153.83l103.67,218.63
	C455.57,431.29,491.55,432.44,523.32,403.61z"/>
</svg>
