<?xml version="1.0" encoding="utf-8"?>
<!-- Generator: Adobe Illustrator 24.2.1, SVG Export Plug-In . SVG Version: 6.00 Build 0)  -->
<svg version="1.1" id="Layer_1" xmlns="http://www.w3.org/2000/svg" xmlns:xlink="http://www.w3.org/1999/xlink" x="0px" y="0px"
	 viewBox="0 0 700 700" style="enable-background:new 0 0 700 700;" xml:space="preserve">
<style type="text/css">
	.st0{fill:#00AEEF;stroke:#000000;stroke-miterlimit:10;enable-background:new    ;}
	.st1{fill:#828282;stroke:#000000;stroke-miterlimit:10;enable-background:new    ;}
</style>
<path class="st0" d="M677,284.5c0-117-93.5-211.7-208.8-211.7s-208.8,94.8-208.8,211.7s93.4,211.8,208.8,211.8
	c13.9,0,27.4-1.3,40.6-4l47.2,99.5l80.2-38L590,456.5C642.7,418,677,355.4,677,284.5z M468.3,412.9c-69.9,0-126.4-57.4-126.4-128.2
	s56.6-128.2,126.4-128.2s126.4,57.4,126.4,128.2c0,37.5-15.8,71.3-41.2,94.7l-0.1-0.2c-15.5,14.3-31.8,22.6-45.7,27.4
	c-11.5,3.8-23.8,6-36.6,6.3l0,0l0,0C470.1,412.9,469.2,412.9,468.3,412.9z"/>
<path class="st1" d="M553.7,379.2L391,36.1l-80.2,38L266,95.4l-0.2,170.2L134,158l-44.7,21.2L9,217.3l158.4,332.3l80.2-38
	L123.8,252.2L275,362.6l29.9-14.2l29.9-14.2l10.3-187l126,265.7C471.3,412.8,515,414.2,553.7,379.2z"/>
</svg>
