<?xml version="1.0" encoding="utf-8"?>
<!-- Generator: Adobe Illustrator 24.2.1, SVG Export Plug-In . SVG Version: 6.00 Build 0)  -->
<svg version="1.1" id="Layer_1" xmlns="http://www.w3.org/2000/svg" xmlns:xlink="http://www.w3.org/1999/xlink" x="0px" y="0px"
	 viewBox="0 0 1599.2 700" style="enable-background:new 0 0 1599.2 700;" xml:space="preserve">
<style type="text/css">
	.st0{fill:#00AEEF;stroke:#000000;stroke-miterlimit:10;}
	.st1{fill:#414042;stroke:#000000;stroke-miterlimit:10;}
</style>
<path class="st0" d="M624.8,325.8c0-96.2-76.9-174.3-171.8-174.3s-171.8,78-171.8,174.3S358.2,500,453,500c11.4,0,22.6-1.1,33.4-3.3
	l38.8,81.9l66-31.3l-38-80C596.6,435.6,624.8,384.1,624.8,325.8z M453,431.3c-57.5,0-104.1-47.3-104.1-105.5s46.6-105.5,104-105.5
	s104,47.3,104,105.5c0,30.9-13.1,58.6-33.9,78l-0.1-0.1c-12.8,11.8-26.1,18.6-37.6,22.5c-9.5,3.2-19.6,5-30.1,5.2c0,0,0,0,0,0l0,0
	C454.6,431.3,453.8,431.3,453,431.3z"/>
<path class="st1" d="M523.3,403.6L389.5,121.4l-66,31.3l-36.8,17.5l-0.1,140L178,221.6l-36.8,17.5l-66,31.3l130.3,273.4l66-31.3
	L169.6,299.1l124.5,90.8l24.7-11.7l24.7-11.7l8.5-153.8l103.7,218.6C455.6,431.3,491.5,432.4,523.3,403.6z"/>
<g>
	<g>
		<path d="M774.7,179.5h29v116.7h-20v-90.6l0.8,5.1l-22.3,72.5h-19.4l-22.3-70.9l0.8-6.7v90.6h-20V179.5h29l22.2,78.7L774.7,179.5z"
			/>
		<path d="M842.9,293c-5.7-2.9-10-7.2-13-12.8c-3-5.6-4.5-12.3-4.5-20.2v-9.4c0-8.2,1.4-15.3,4.3-21.1c2.9-5.8,7-10.3,12.5-13.3
			c5.5-3.1,12.1-4.6,19.9-4.6c7.3,0,13.5,1.8,18.7,5.5c5.2,3.6,9.1,8.9,11.8,15.9c2.7,6.9,4.1,15.3,4.1,25.1v5.5h-57v-14.9h36.9
			l-0.2-1.9c-0.6-4.8-2.1-8.5-4.5-11.2c-2.4-2.6-5.7-3.9-9.8-3.9c-5.3,0-9.4,1.6-12.3,4.7c-2.9,3.2-4.4,7.6-4.4,13.4v10.6
			c0,5.7,1.6,10.1,4.8,13.2c3.2,3.1,7.6,4.7,13.4,4.7c2.9,0,5.9-0.5,8.8-1.6c2.9-1,5.5-2.5,7.9-4.5l14.4,12.8c-4.3,4-9.2,7-14.6,9.2
			c-5.4,2.2-10.9,3.3-16.4,3.3C855.5,297.4,848.6,296,842.9,293z"/>
		<path d="M916,179.5h22v116.7h-22V179.5z M964.1,245.7c0-4.1-1.2-7.2-3.5-9.5c-2.3-2.2-5.6-3.4-9.9-3.4c-4.1,0-7.2,1.1-9.4,3.4
			c-2.2,2.3-3.3,5.5-3.3,9.6l-1.7-18.5c2.5-5.2,5.5-9.2,9-11.8c3.5-2.6,7.9-3.9,13.2-3.9c8.8,0,15.6,3,20.4,8.9
			c4.8,5.9,7.2,14.3,7.2,25.1v50.6h-22V245.7z"/>
		<path d="M1018.3,293.2c-4.2-2.8-7.4-6.9-9.6-12.3c-2.2-5.4-3.3-11.9-3.3-19.5v-13.3c0-7.7,1.1-14.2,3.3-19.7
			c2.2-5.5,5.4-9.6,9.6-12.4c4.2-2.8,9.2-4.3,15.1-4.3c4.4,0,8.5,1.3,12.2,4c3.7,2.6,6.6,6.4,8.9,11.3l-1.7,18.5
			c0-2.8-0.5-5.2-1.4-7.2c-1-2-2.4-3.5-4.2-4.5c-1.8-1-4.1-1.6-6.7-1.6c-4.1,0-7.3,1.4-9.6,4.2c-2.3,2.8-3.4,6.8-3.4,11.8v13.2
			c0,5,1.1,8.8,3.4,11.6c2.3,2.7,5.5,4.1,9.6,4.1c2.6,0,4.9-0.5,6.7-1.5c1.8-1,3.3-2.5,4.2-4.4c1-1.9,1.4-4.3,1.4-7l1.1,19
			c-1.7,4.5-4.3,8.1-7.9,10.6s-7.7,3.7-12.6,3.7C1027.5,297.4,1022.5,296,1018.3,293.2z M1052.7,179.5h22v116.7h-22V179.5z"/>
		<path d="M1095.2,179.5h22v22h-22V179.5z M1095.2,212.9h22v83.3h-22V212.9z"/>
	</g>
</g>
<g>
	<g>
		<path d="M719.2,534.7c-6.5-3.6-11.4-8.6-15-15.1c-3.5-6.5-5.3-14-5.3-22.6V464c0-8.6,1.8-16.1,5.3-22.6c3.5-6.5,8.5-11.5,15-15.1
			c6.4-3.6,13.9-5.3,22.4-5.3c8.5,0,15.9,1.8,22.4,5.3c6.4,3.6,11.4,8.6,15,15.1c3.5,6.5,5.3,14,5.3,22.6V497
			c0,8.6-1.8,16.1-5.3,22.6c-3.5,6.5-8.5,11.5-15,15.1c-6.5,3.6-13.9,5.3-22.4,5.3C733.1,540.1,725.6,538.3,719.2,534.7z
			 M751.9,515.5c3-1.7,5.3-4.1,6.9-7.2c1.6-3.1,2.4-6.7,2.4-10.8v-34.2c0-4.1-0.8-7.7-2.4-10.8c-1.6-3.1-3.9-5.5-6.9-7.2
			c-3-1.7-6.5-2.5-10.4-2.5c-4,0-7.4,0.8-10.4,2.5c-3,1.7-5.3,4.1-6.9,7.2c-1.6,3.1-2.4,6.7-2.4,10.8v34.2c0,4.1,0.8,7.7,2.4,10.8
			c1.6,3.1,3.9,5.5,6.9,7.2c3,1.7,6.5,2.5,10.4,2.5C745.5,518.1,748.9,517.2,751.9,515.5z M738.1,506.5l11.7-14.9l45.1,34.2
			l-11.7,14.9L738.1,506.5z"/>
		<path d="M810.3,533.7c-4.4-4.3-6.6-10.7-6.6-19.4c0-8.2,2.5-14.4,7.4-18.5c5-4.1,12.4-6.2,22.3-6.2h20.9l1.1,16.8h-21.9
			c-3.3,0-5.8,0.7-7.5,2c-1.7,1.3-2.5,3.3-2.5,6c0,2.7,1,4.8,3.1,6.1c2.1,1.3,5.2,2,9.5,2c5.9,0,10.3-0.7,13.1-2
			c2.9-1.3,4.3-3.4,4.3-6.3l1.7,12.1c-0.3,3-1.7,5.5-4.1,7.6c-2.4,2.1-5.5,3.7-9.2,4.7c-3.7,1-7.5,1.6-11.6,1.6
			C821.4,540.1,814.8,537.9,810.3,533.7z M853.6,486c0-3.9-1.3-6.8-3.9-8.9c-2.6-2.1-6.2-3.1-10.9-3.1c-3.1,0-6.2,0.5-9.2,1.5
			c-3.1,1-5.8,2.4-8.1,4.3l-13.6-13.4c3.3-3.8,7.7-6.8,13.2-8.9c5.5-2.1,11.5-3.2,18.1-3.2c7.3,0,13.5,1.2,18.6,3.7
			c5.1,2.4,9.1,6,11.8,10.6c2.7,4.6,4.1,10.2,4.1,16.7v53.5h-20V486z"/>
		<path d="M895.2,455.5h22v83.3h-22V455.5z M943.4,488.4c0-4.1-1.2-7.2-3.5-9.5c-2.3-2.2-5.6-3.4-9.9-3.4c-4.1,0-7.2,1.1-9.4,3.4
			c-2.2,2.3-3.3,5.5-3.3,9.6l-1.7-18.5c2.5-5.2,5.5-9.2,9-11.8c3.5-2.6,7.9-3.9,13.2-3.9c8.8,0,15.6,3,20.4,8.9
			c4.8,5.9,7.2,14.3,7.2,25.1v50.6h-22V488.4z"/>
		<path d="M989.7,533.7c-4.4-4.3-6.6-10.7-6.6-19.4c0-8.2,2.5-14.4,7.4-18.5c5-4.1,12.4-6.2,22.3-6.2h20.9l1.1,16.8h-21.9
			c-3.3,0-5.8,0.7-7.5,2c-1.7,1.3-2.5,3.3-2.5,6c0,2.7,1,4.8,3.1,6.1c2.1,1.3,5.2,2,9.5,2c5.9,0,10.3-0.7,13.1-2
			c2.9-1.3,4.3-3.4,4.3-6.3l1.7,12.1c-0.3,3-1.7,5.5-4.1,7.6c-2.4,2.1-5.5,3.7-9.2,4.7c-3.7,1-7.5,1.6-11.6,1.6
			C1000.8,540.1,994.1,537.9,989.7,533.7z M1032.9,486c0-3.9-1.3-6.8-3.9-8.9c-2.6-2.1-6.2-3.1-10.9-3.1c-3.1,0-6.2,0.5-9.2,1.5
			c-3.1,1-5.8,2.4-8.1,4.3l-13.6-13.4c3.3-3.8,7.7-6.8,13.2-8.9c5.5-2.1,11.5-3.2,18.1-3.2c7.3,0,13.5,1.2,18.6,3.7
			c5.1,2.4,9.1,6,11.8,10.6c2.7,4.6,4.1,10.2,4.1,16.7v53.5h-20V486z"/>
		<path d="M1122,455.5h21.9l-31.3,83.3h-15.6l-31.3-83.3h21.9l17.2,52.3L1122,455.5z"/>
		<path d="M1159.4,533.7c-4.4-4.3-6.6-10.7-6.6-19.4c0-8.2,2.5-14.4,7.4-18.5c5-4.1,12.4-6.2,22.3-6.2h20.9l1.1,16.8h-21.9
			c-3.3,0-5.8,0.7-7.5,2c-1.7,1.3-2.5,3.3-2.5,6c0,2.7,1,4.8,3.1,6.1c2.1,1.3,5.2,2,9.5,2c5.9,0,10.3-0.7,13.1-2
			c2.9-1.3,4.3-3.4,4.3-6.3l1.7,12.1c-0.3,3-1.7,5.5-4.1,7.6c-2.4,2.1-5.5,3.7-9.2,4.7c-3.7,1-7.5,1.6-11.6,1.6
			C1170.5,540.1,1163.8,537.9,1159.4,533.7z M1202.6,486c0-3.9-1.3-6.8-3.9-8.9c-2.6-2.1-6.2-3.1-10.9-3.1c-3.1,0-6.2,0.5-9.2,1.5
			c-3.1,1-5.8,2.4-8.1,4.3l-13.6-13.4c3.3-3.8,7.7-6.8,13.2-8.9c5.5-2.1,11.5-3.2,18.1-3.2c7.3,0,13.5,1.2,18.6,3.7
			c5.1,2.4,9.1,6,11.8,10.6c2.7,4.6,4.1,10.2,4.1,16.7v53.5h-20V486z"/>
		<path d="M1237.9,455.5h40.8v18.8h-40.8V455.5z M1251.6,533.7c-3.4-3.7-5.1-9.2-5.1-16.5v-85.9h22v80.4c0,2,0.4,3.6,1.2,4.7
			c0.8,1.1,2,1.6,3.5,1.6h5.5v21.2h-11.1C1260.3,539.3,1255,537.4,1251.6,533.7z"/>
		<path d="M1296.7,422.1h22v22h-22V422.1z M1296.7,455.5h22v83.3h-22V455.5z"/>
		<path d="M1341.8,533.7c-4.4-4.3-6.6-10.7-6.6-19.4c0-8.2,2.5-14.4,7.4-18.5c5-4.1,12.4-6.2,22.3-6.2h20.9l1.1,16.8h-21.9
			c-3.3,0-5.8,0.7-7.5,2c-1.7,1.3-2.5,3.3-2.5,6c0,2.7,1,4.8,3.1,6.1c2.1,1.3,5.2,2,9.5,2c5.9,0,10.3-0.7,13.1-2
			c2.9-1.3,4.3-3.4,4.3-6.3l1.7,12.1c-0.3,3-1.7,5.5-4.1,7.6c-2.4,2.1-5.5,3.7-9.2,4.7c-3.7,1-7.5,1.6-11.6,1.6
			C1352.9,540.1,1346.2,537.9,1341.8,533.7z M1385,486c0-3.9-1.3-6.8-3.9-8.9c-2.6-2.1-6.2-3.1-10.9-3.1c-3.1,0-6.2,0.5-9.2,1.5
			c-3.1,1-5.8,2.4-8.1,4.3l-13.6-13.4c3.3-3.8,7.7-6.8,13.2-8.9c5.5-2.1,11.5-3.2,18.1-3.2c7.3,0,13.5,1.2,18.6,3.7
			c5.1,2.4,9.1,6,11.8,10.6c2.7,4.6,4.1,10.2,4.1,16.7v53.5h-20V486z"/>
		<path d="M1426.7,455.5h22v83.3h-22V455.5z M1474.8,488.4c0-4.1-1.2-7.2-3.5-9.5c-2.3-2.2-5.6-3.4-9.9-3.4c-4.1,0-7.2,1.1-9.4,3.4
			c-2.2,2.3-3.3,5.5-3.3,9.6l-1.7-18.5c2.5-5.2,5.5-9.2,9-11.8c3.5-2.6,7.9-3.9,13.2-3.9c8.8,0,15.6,3,20.4,8.9
			c4.8,5.9,7.2,14.3,7.2,25.1v50.6h-22V488.4z"/>
	</g>
</g>
</svg>
